<svg width="536" height="218" viewBox="0 0 536 218" fill="none" xmlns="http://www.w3.org/2000/svg">
<path d="M265.64 137V81H276.36L300.2 120.52H294.52L317.96 81H328.6L328.76 137H316.6L316.52 99.64H318.76L300.04 131.08H294.2L275.08 99.64H277.8V137H265.64ZM362.446 137.64C357.859 137.64 353.779 136.68 350.206 134.76C346.686 132.84 343.886 130.227 341.806 126.92C339.779 123.56 338.766 119.747 338.766 115.48C338.766 111.16 339.779 107.347 341.806 104.04C343.886 100.68 346.686 98.0667 350.206 96.2C353.779 94.28 357.859 93.32 362.446 93.32C366.979 93.32 371.033 94.28 374.606 96.2C378.179 98.0667 380.979 100.653 383.006 103.96C385.033 107.267 386.046 111.107 386.046 115.48C386.046 119.747 385.033 123.56 383.006 126.92C380.979 130.227 378.179 132.84 374.606 134.76C371.033 136.68 366.979 137.64 362.446 137.64ZM362.446 127.4C364.526 127.4 366.393 126.92 368.046 125.96C369.699 125 371.006 123.64 371.966 121.88C372.926 120.067 373.406 117.933 373.406 115.48C373.406 112.973 372.926 110.84 371.966 109.08C371.006 107.32 369.699 105.96 368.046 105C366.393 104.04 364.526 103.56 362.446 103.56C360.366 103.56 358.499 104.04 356.846 105C355.193 105.96 353.859 107.32 352.846 109.08C351.886 110.84 351.406 112.973 351.406 115.48C351.406 117.933 351.886 120.067 352.846 121.88C353.859 123.64 355.193 125 356.846 125.96C358.499 126.92 360.366 127.4 362.446 127.4ZM395.188 137V93.96H407.108V106.12L405.428 102.6C406.708 99.56 408.761 97.2667 411.588 95.72C414.415 94.12 417.855 93.32 421.908 93.32V104.84C421.375 104.787 420.895 104.76 420.468 104.76C420.041 104.707 419.588 104.68 419.108 104.68C415.695 104.68 412.921 105.667 410.788 107.64C408.708 109.56 407.668 112.573 407.668 116.68V137H395.188ZM455.647 137.64C452.02 137.64 448.847 136.84 446.127 135.24C443.407 133.64 441.273 131.213 439.727 127.96C438.233 124.653 437.487 120.493 437.487 115.48C437.487 110.413 438.207 106.253 439.647 103C441.087 99.7467 443.167 97.32 445.887 95.72C448.607 94.12 451.86 93.32 455.647 93.32C459.7 93.32 463.327 94.2533 466.527 96.12C469.78 97.9333 472.34 100.493 474.207 103.8C476.127 107.107 477.087 111 477.087 115.48C477.087 120.013 476.127 123.933 474.207 127.24C472.34 130.547 469.78 133.107 466.527 134.92C463.327 136.733 459.7 137.64 455.647 137.64ZM430.207 152.52V93.96H442.127V102.76L441.887 115.56L442.687 128.28V152.52H430.207ZM453.487 127.4C455.567 127.4 457.407 126.92 459.007 125.96C460.66 125 461.967 123.64 462.927 121.88C463.94 120.067 464.447 117.933 464.447 115.48C464.447 112.973 463.94 110.84 462.927 109.08C461.967 107.32 460.66 105.96 459.007 105C457.407 104.04 455.567 103.56 453.487 103.56C451.407 103.56 449.54 104.04 447.887 105C446.233 105.96 444.927 107.32 443.967 109.08C443.007 110.84 442.527 112.973 442.527 115.48C442.527 117.933 443.007 120.067 443.967 121.88C444.927 123.64 446.233 125 447.887 125.96C449.54 126.92 451.407 127.4 453.487 127.4ZM512.401 93.32C515.814 93.32 518.854 94.0133 521.521 95.4C524.241 96.7333 526.374 98.8133 527.921 101.64C529.468 104.413 530.241 107.987 530.241 112.36V137H517.761V114.28C517.761 110.813 516.988 108.253 515.441 106.6C513.948 104.947 511.814 104.12 509.041 104.12C507.068 104.12 505.281 104.547 503.681 105.4C502.134 106.2 500.908 107.453 500.001 109.16C499.148 110.867 498.721 113.053 498.721 115.72V137H486.241V77.64H498.721V105.88L495.921 102.28C497.468 99.4 499.681 97.1867 502.561 95.64C505.441 94.0933 508.721 93.32 512.401 93.32Z" fill="white"/>
<path fill-rule="evenodd" clip-rule="evenodd" d="M150.642 198.263C176.942 198.263 198.263 176.942 198.263 150.642C198.263 124.342 176.942 103.021 150.642 103.021C150.228 103.021 149.815 103.027 149.404 103.037C107.521 103.155 84.382 80.1817 84.2101 55.1422C84.2133 54.9642 84.2149 54.7858 84.2149 54.607C84.2149 38.2559 70.9597 25.0007 54.6086 25.0007C38.2575 25.0007 25.0023 38.2559 25.0023 54.607C25.0023 70.9581 38.2575 84.2133 54.6086 84.2133C54.8703 84.2133 55.1312 84.2099 55.3912 84.2032C80.3525 84.4049 103.317 107.71 103.028 149.874C103.023 150.13 103.021 150.386 103.021 150.642C103.021 176.942 124.342 198.263 150.642 198.263ZM73.5458 54.6086C73.5458 65.0673 65.0674 73.5457 54.6087 73.5457C44.1501 73.5457 35.6717 65.0673 35.6717 54.6086C35.6717 44.15 44.1501 35.6716 54.6087 35.6716C65.0674 35.6716 73.5458 44.15 73.5458 54.6086ZM150.642 181.264C167.554 181.264 181.264 167.554 181.264 150.642C181.264 133.73 167.554 120.02 150.642 120.02C133.73 120.02 120.02 133.73 120.02 150.642C120.02 167.554 133.73 181.264 150.642 181.264Z" fill="white"/>
</svg>
