<svg width="469" height="469" viewBox="0 0 469 469" fill="none" xmlns="http://www.w3.org/2000/svg">
<g clip-path="url(#clip0_390_933)">
<path fill-rule="evenodd" clip-rule="evenodd" d="M339.733 468.625C410.918 468.625 468.625 410.918 468.625 339.733C468.625 268.548 410.918 210.841 339.733 210.841C338.612 210.841 337.495 210.855 336.381 210.884C223.025 211.204 160.395 149.027 159.926 81.2571C159.934 80.7728 159.939 80.2875 159.939 79.8012C159.939 35.5447 124.062 -0.332269 79.8053 -0.332267C35.5488 -0.332267 -0.328186 35.5447 -0.32818 79.8012C-0.328187 124.058 35.5488 159.935 79.8053 159.935C80.5137 159.935 81.2199 159.925 81.9239 159.907C149.486 160.454 211.643 223.533 210.857 337.659C210.847 338.349 210.841 339.04 210.841 339.733C210.841 410.918 268.548 468.625 339.733 468.625ZM131.061 79.8057C131.061 108.113 108.113 131.061 79.8056 131.061C51.4979 131.061 28.5499 108.113 28.5499 79.8057C28.5499 51.4979 51.4979 28.55 79.8056 28.55C108.113 28.55 131.061 51.4979 131.061 79.8057ZM339.733 422.615C385.507 422.615 422.615 385.507 422.615 339.733C422.615 293.959 385.507 256.852 339.733 256.851C293.959 256.851 256.852 293.959 256.851 339.733C256.851 385.507 293.959 422.615 339.733 422.615Z" fill="white"/>
</g>
<defs>
<clipPath id="clip0_390_933">
<rect width="469" height="469" fill="white"/>
</clipPath>
</defs>
</svg>
