<svg width="739" height="739" viewBox="0 0 739 739" fill="none" xmlns="http://www.w3.org/2000/svg">
<path d="M276.386 476.093C205.93 454.381 44.6209 403.405 75.3781 260.305C110.85 95.0055 306.271 207.097 426.152 151.17C511.004 111.603 688.127 69.8795 675.121 248.511C662.469 422.264 655.212 548.146 552.255 578.016C449.297 607.886 382.935 508.905 276.386 476.093Z" fill="#4633FF"/>
<path opacity="0.7" d="M276.386 476.093C205.93 454.381 44.6209 403.405 75.3781 260.305C110.85 95.0055 306.271 207.097 426.152 151.17C511.004 111.603 688.127 69.8795 675.121 248.511C662.469 422.264 655.212 548.146 552.255 578.016C449.297 607.886 382.935 508.905 276.386 476.093Z" fill="white"/>
<path d="M108.879 603.777H675.121" stroke="#263238" stroke-linecap="round" stroke-linejoin="round"/>
<path d="M168.492 435.286C177.36 442.676 174.404 486.129 202.131 467.432C229.858 448.735 182.622 437.665 185.312 427.068C189.095 412.288 251.482 430.024 241.017 401.646C230.553 373.269 193.248 415.953 183.449 405.386C174.434 395.66 219.335 360.514 198.407 354.542C177.478 348.571 181.927 399.4 168.492 399.4C157.998 399.4 159.964 350.803 140.676 367.992C121.388 385.181 163.541 402.134 158.028 412.805C153.83 420.919 120.649 400.893 122.142 419.589C123.635 438.286 159.033 427.467 168.492 435.286Z" fill="#4633FF"/>
<path d="M174.404 413.057C174.404 413.057 154.244 437.488 156.491 504.072" stroke="#263238" stroke-linecap="round" stroke-linejoin="round"/>
<path d="M213.763 447.686C210.186 440.488 180.523 435.566 197.505 419.944C214.487 404.321 214.428 437.813 221.981 437.68C232.549 437.502 230.494 392.719 247.935 404.277C265.375 415.835 230.701 434.118 236.258 442.38C241.357 449.991 272.129 425.397 272.824 440.429C273.519 455.46 240.042 444.331 237.899 453.391C236.229 460.441 269.218 466.855 254.586 477.039C239.953 487.222 235.268 456.243 227.228 458.253C221.094 459.731 229.282 485.286 216.956 481.295C204.629 477.305 217.517 455.223 213.763 447.686Z" fill="#4633FF"/>
<path opacity="0.3" d="M213.763 447.686C210.186 440.488 180.523 435.566 197.505 419.944C214.487 404.321 214.428 437.813 221.981 437.68C232.549 437.502 230.494 392.719 247.935 404.277C265.375 415.835 230.701 434.118 236.258 442.38C241.357 449.991 272.129 425.397 272.824 440.429C273.519 455.46 240.042 444.331 237.899 453.391C236.229 460.441 269.218 466.855 254.586 477.039C239.953 487.222 235.268 456.243 227.228 458.253C221.094 459.731 229.282 485.286 216.956 481.295C204.629 477.305 217.517 455.223 213.763 447.686Z" fill="black"/>
<path d="M229.09 447.996C229.09 447.996 171.64 442.01 165.965 504.072" stroke="#263238" stroke-linecap="round" stroke-linejoin="round"/>
<path d="M119.481 441.271C110.613 448.661 113.569 492.114 85.8422 473.418C58.1149 454.721 105.367 443.636 102.662 433.053C98.8929 418.273 36.4917 436.009 46.9708 407.632C57.4498 379.254 94.7249 421.954 104.613 411.371C113.614 401.661 68.7269 366.514 89.6554 360.528C110.584 354.542 106.076 405.4 119.555 405.4C130.049 405.4 128.098 356.789 147.386 373.992C166.674 391.196 124.507 408.134 130.034 418.805C134.217 426.92 167.413 406.893 165.92 425.575C164.427 444.257 128.896 433.452 119.481 441.271Z" fill="#4633FF"/>
<path opacity="0.3" d="M119.481 441.271C110.613 448.661 113.569 492.114 85.8422 473.418C58.1149 454.721 105.367 443.636 102.662 433.053C98.8929 418.273 36.4917 436.009 46.9708 407.632C57.4498 379.254 94.7249 421.954 104.613 411.371C113.614 401.661 68.7269 366.514 89.6554 360.528C110.584 354.542 106.076 405.4 119.555 405.4C130.049 405.4 128.098 356.789 147.386 373.992C166.674 391.196 124.507 408.134 130.034 418.805C134.217 426.92 167.413 406.893 165.92 425.575C164.427 444.257 128.896 433.452 119.481 441.271Z" fill="white"/>
<path d="M113.126 419.042C113.126 419.042 139.287 453.982 145.272 512.289" stroke="#263238" stroke-linecap="round" stroke-linejoin="round"/>
<path d="M131.852 603.526H172.645C176.432 603.543 180.086 602.131 182.878 599.572C185.669 597.013 187.394 593.496 187.706 589.722L194.12 514.344C194.288 512.274 194.025 510.191 193.347 508.227C192.67 506.264 191.594 504.461 190.186 502.934C188.778 501.407 187.069 500.188 185.167 499.353C183.265 498.519 181.211 498.087 179.134 498.086H125.438C123.361 498.087 121.307 498.519 119.406 499.353C117.504 500.188 115.797 501.407 114.39 502.935C112.983 504.462 111.908 506.265 111.233 508.228C110.557 510.192 110.296 512.274 110.466 514.344L116.88 589.722C117.188 593.482 118.899 596.989 121.672 599.546C124.446 602.103 128.08 603.524 131.852 603.526Z" fill="#4633FF" stroke="#263238" stroke-linecap="round" stroke-linejoin="round"/>
<path d="M437.311 495.278C423.669 495.278 384.295 486.41 384.295 486.41H490.327C490.327 486.41 450.938 495.278 437.311 495.278Z" fill="#263238" stroke="#263238" stroke-linecap="round" stroke-linejoin="round"/>
<path d="M449.46 490.829H425.162V507.486H449.46V490.829Z" fill="#858585" stroke="#263238" stroke-linecap="round" stroke-linejoin="round"/>
<path d="M453.051 507.486H421.57V579.095H453.051V507.486Z" fill="#999999" stroke="#263238" stroke-linecap="round" stroke-linejoin="round"/>
<path d="M496.445 465.142H475.916C478.192 451.042 479.877 436.676 480.912 422.442H501.367C500.392 436.676 498.722 451.042 496.445 465.142Z" fill="#858585" stroke="#263238" stroke-linecap="round" stroke-linejoin="round"/>
<path d="M527.528 296.31H439.321C428.975 296.31 422.161 305.074 424.171 315.391C429.804 346.906 433.173 378.784 434.251 410.781C434.241 412.964 434.665 415.127 435.498 417.144C436.331 419.162 437.557 420.994 439.104 422.534C440.651 424.074 442.488 425.292 444.51 426.116C446.531 426.94 448.696 427.354 450.879 427.334H525.133C529.748 427.288 534.195 425.595 537.672 422.559C541.149 419.524 543.427 415.347 544.096 410.781C547.676 379.118 548.97 347.239 547.969 315.391C547.481 305.074 537.889 296.31 527.528 296.31Z" fill="#858585" stroke="#263238" stroke-linecap="round" stroke-linejoin="round"/>
<path d="M532.331 315.391C533.333 347.239 532.039 379.118 528.459 410.781C527.79 415.347 525.511 419.524 522.035 422.559C518.558 425.595 514.111 427.288 509.496 427.334H450.879C448.696 427.354 446.531 426.94 444.51 426.116C442.488 425.292 440.651 424.074 439.104 422.534C437.557 420.994 436.331 419.162 435.498 417.144C434.665 415.127 434.241 412.964 434.251 410.781C433.178 378.784 429.814 346.906 424.186 315.391C422.176 305.045 428.96 296.31 439.336 296.31H511.891C522.251 296.31 531.844 305.074 532.331 315.391Z" fill="#999999" stroke="#263238" stroke-linecap="round" stroke-linejoin="round"/>
<path d="M490.327 591.954C490.327 592.347 490.239 592.736 490.069 593.09C489.9 593.445 489.653 593.757 489.346 594.004C489.04 594.251 488.682 594.426 488.299 594.516C487.917 594.606 487.518 594.61 487.134 594.526C477.483 592.427 448.588 586.337 437.311 586.337C426.034 586.337 397.124 592.427 387.473 594.526C387.089 594.61 386.692 594.607 386.309 594.517C385.927 594.426 385.57 594.251 385.265 594.004C384.96 593.757 384.714 593.444 384.546 593.09C384.378 592.735 384.292 592.347 384.295 591.954C384.294 590.374 384.834 588.841 385.827 587.612C386.82 586.383 388.204 585.531 389.749 585.199C401.041 582.775 426.802 577.499 437.311 577.499C447.819 577.499 473.581 582.775 484.873 585.199C486.416 585.533 487.799 586.386 488.791 587.614C489.783 588.843 490.325 590.375 490.327 591.954Z" fill="#263238" stroke="#263238" stroke-linecap="round" stroke-linejoin="round"/>
<path d="M384.28 586.634C382.484 586.631 380.727 587.161 379.233 588.157C377.738 589.153 376.573 590.57 375.884 592.229C375.195 593.888 375.014 595.714 375.364 597.476C375.714 599.237 376.578 600.856 377.848 602.126C379.118 603.396 380.737 604.26 382.499 604.61C384.26 604.96 386.086 604.779 387.745 604.09C389.404 603.401 390.821 602.236 391.817 600.741C392.813 599.247 393.343 597.49 393.34 595.694C393.336 593.292 392.381 590.99 390.682 589.292C388.984 587.593 386.682 586.638 384.28 586.634ZM384.28 600.616C383.306 600.619 382.353 600.332 381.542 599.793C380.73 599.254 380.097 598.487 379.722 597.588C379.348 596.689 379.248 595.699 379.436 594.743C379.625 593.787 380.092 592.909 380.78 592.219C381.468 591.529 382.345 591.059 383.3 590.868C384.255 590.677 385.245 590.773 386.145 591.145C387.046 591.518 387.815 592.148 388.357 592.958C388.898 593.768 389.187 594.72 389.187 595.694C389.187 596.997 388.671 598.246 387.751 599.169C386.831 600.092 385.583 600.612 384.28 600.616Z" fill="#858585" stroke="#263238" stroke-linecap="round" stroke-linejoin="round"/>
<path d="M437.311 586.634C435.512 586.628 433.751 587.157 432.253 588.154C430.756 589.151 429.588 590.571 428.899 592.233C428.209 593.895 428.03 595.724 428.383 597.488C428.736 599.253 429.605 600.872 430.88 602.141C432.156 603.411 433.78 604.272 435.546 604.616C437.312 604.96 439.14 604.772 440.799 604.074C442.457 603.377 443.871 602.202 444.861 600.7C445.85 599.197 446.371 597.434 446.356 595.635C446.337 593.246 445.376 590.961 443.683 589.276C441.989 587.591 439.7 586.642 437.311 586.634ZM437.311 600.616C436.339 600.619 435.389 600.334 434.579 599.797C433.769 599.261 433.136 598.497 432.759 597.601C432.383 596.705 432.28 595.718 432.463 594.764C432.647 593.81 433.108 592.932 433.79 592.24C434.472 591.548 435.343 591.073 436.295 590.875C437.246 590.678 438.234 590.766 439.135 591.129C440.037 591.492 440.81 592.113 441.359 592.915C441.907 593.717 442.206 594.663 442.218 595.635C442.226 596.285 442.104 596.93 441.862 597.533C441.619 598.136 441.259 598.685 440.802 599.148C440.346 599.611 439.803 599.979 439.203 600.231C438.604 600.483 437.961 600.614 437.311 600.616Z" fill="#858585" stroke="#263238" stroke-linecap="round" stroke-linejoin="round"/>
<path d="M489.218 586.634C487.422 586.634 485.667 587.166 484.175 588.164C482.682 589.162 481.519 590.58 480.832 592.239C480.146 593.898 479.967 595.724 480.319 597.485C480.67 599.245 481.536 600.862 482.806 602.131C484.077 603.399 485.695 604.263 487.457 604.611C489.218 604.96 491.043 604.778 492.701 604.089C494.359 603.399 495.775 602.234 496.771 600.74C497.766 599.245 498.296 597.489 498.293 595.694C498.293 594.503 498.058 593.324 497.602 592.223C497.146 591.123 496.477 590.124 495.634 589.282C494.791 588.441 493.791 587.774 492.69 587.319C491.589 586.865 490.409 586.632 489.218 586.634ZM489.218 600.616C488.245 600.616 487.293 600.327 486.484 599.786C485.674 599.245 485.043 598.477 484.671 597.577C484.298 596.678 484.201 595.688 484.391 594.734C484.581 593.779 485.049 592.902 485.738 592.214C486.426 591.525 487.303 591.057 488.258 590.867C489.213 590.677 490.202 590.774 491.101 591.147C492.001 591.519 492.769 592.15 493.31 592.96C493.851 593.769 494.14 594.721 494.14 595.694C494.14 596.999 493.621 598.251 492.698 599.174C491.775 600.097 490.523 600.616 489.218 600.616Z" fill="#858585" stroke="#263238" stroke-linecap="round" stroke-linejoin="round"/>
<path d="M464.181 462.275C428.794 463.398 393.373 461.832 358.223 457.59C356.601 457.297 354.933 457.369 353.342 457.802C351.752 458.235 350.277 459.017 349.027 460.092C347.777 461.166 346.782 462.507 346.115 464.014C345.448 465.522 345.126 467.16 345.172 468.808V470.537C345.258 474.168 346.609 477.655 348.992 480.397C351.374 483.138 354.639 484.962 358.223 485.553C393.373 489.788 428.794 491.354 464.181 490.239V462.275Z" fill="#999999" stroke="#263238" stroke-linecap="round" stroke-linejoin="round"/>
<path d="M519.754 485.095C497.791 487.844 476.02 489.662 453.909 490.608C452.635 490.647 451.366 490.43 450.179 489.968C448.991 489.506 447.908 488.809 446.996 487.919C446.084 487.029 445.361 485.964 444.87 484.788C444.379 483.612 444.131 482.349 444.139 481.074V472.576C444.165 469.979 445.198 467.494 447.021 465.644C448.843 463.794 451.313 462.724 453.909 462.659C476.079 461.698 497.791 459.88 519.754 457.131C520.957 456.905 522.195 456.952 523.377 457.267C524.56 457.583 525.656 458.16 526.587 458.955C527.517 459.751 528.257 460.745 528.752 461.864C529.248 462.983 529.486 464.199 529.449 465.422V473.921C529.378 476.618 528.372 479.207 526.603 481.245C524.835 483.283 522.414 484.644 519.754 485.095Z" fill="#858585" stroke="#263238" stroke-linecap="round" stroke-linejoin="round"/>
<path d="M372.707 600.069C372.707 595.132 371.628 585.289 365.805 572.504L358.223 545.161L334.575 555.256L341.226 576.199C341.226 576.199 320.903 585.895 313.395 588.511C308.4 590.255 293.442 593.684 294.181 600.098C294.181 600.551 294.27 600.998 294.443 601.416C294.616 601.834 294.87 602.214 295.19 602.533C295.51 602.853 295.889 603.107 296.307 603.28C296.725 603.453 297.173 603.542 297.625 603.542H369.249C369.705 603.544 370.157 603.456 370.578 603.281C371 603.107 371.382 602.851 371.704 602.528C372.026 602.205 372.28 601.821 372.452 601.399C372.625 600.977 372.711 600.525 372.707 600.069Z" fill="white" stroke="#263238" stroke-linecap="round" stroke-linejoin="round"/>
<path d="M359.686 584.061C355.991 586.781 336.289 590.225 341.226 586.278C346.162 582.332 341.226 576.184 341.226 576.184C341.226 576.184 320.903 585.879 313.395 588.495C308.4 590.239 293.442 593.668 294.181 600.083C294.181 600.535 294.27 600.983 294.443 601.401C294.616 601.819 294.87 602.198 295.19 602.518C295.51 602.838 295.889 603.091 296.307 603.264C296.725 603.438 297.173 603.527 297.625 603.527H369.249C369.704 603.529 370.155 603.44 370.576 603.266C370.997 603.091 371.378 602.835 371.699 602.512C372.019 602.189 372.272 601.805 372.443 601.383C372.614 600.96 372.698 600.509 372.693 600.053C372.451 592.566 370.921 585.176 368.17 578.208C364.105 578.253 363.381 581.357 359.686 584.061Z" fill="#4633FF" stroke="#263238" stroke-linecap="round" stroke-linejoin="round"/>
<path d="M389.808 603.527H442.277C442.802 603.526 443.31 603.343 443.714 603.009C444.119 602.674 444.394 602.21 444.494 601.694C445.292 597.526 445.115 588.2 440.385 575.814L439.912 550.688L413.042 555.255L416.441 576.686C416.441 576.686 405.622 588.599 400.479 590.727C396.873 592.205 388.655 592.383 387.561 601.073C387.532 601.385 387.569 601.7 387.669 601.997C387.769 602.294 387.93 602.567 388.141 602.798C388.353 603.029 388.611 603.213 388.897 603.338C389.184 603.464 389.495 603.528 389.808 603.527Z" fill="white" stroke="#263238" stroke-linecap="round" stroke-linejoin="round"/>
<path d="M431.576 584.165C426.034 588.037 421.939 588.495 424.526 582.687C427.112 576.878 416.5 576.671 416.5 576.671C416.5 576.671 405.681 588.584 400.538 590.712C396.932 592.19 388.714 592.368 387.62 601.058C387.583 601.375 387.613 601.696 387.708 602C387.804 602.304 387.964 602.584 388.176 602.822C388.389 603.06 388.649 603.249 388.941 603.378C389.232 603.507 389.548 603.573 389.867 603.571H442.336C442.861 603.57 443.369 603.387 443.773 603.052C444.178 602.718 444.453 602.253 444.553 601.738C445.351 597.57 445.174 588.244 440.444 575.858C436.335 576.804 437.074 580.278 431.576 584.165Z" fill="#4633FF" stroke="#263238" stroke-linecap="round" stroke-linejoin="round"/>
<path d="M384.59 411.638C384.59 411.638 379.299 417.048 357.676 420.506C336.053 423.965 291.166 434.784 291.713 452.52C292.26 470.256 333.599 564.848 333.599 564.848C333.599 564.848 354.291 560.916 363.898 555.004C363.898 555.004 347.241 487.504 334.752 469.768C334.752 469.768 390.813 462.866 421.821 450.066C452.83 437.267 434.591 408.091 434.591 408.091L384.59 411.638Z" fill="#263238" stroke="#263238" stroke-linecap="round" stroke-linejoin="round"/>
<path d="M419.752 409.14C419.752 409.14 427.704 422.442 421.762 429.832C415.821 437.222 382.078 451.012 385.891 467.773C389.704 484.533 402.297 508.166 410.5 564.33C410.5 564.33 429.61 561.374 442.41 555.95C442.41 555.95 444.538 498.811 429.684 474.172C429.684 474.172 472.221 466.295 476.537 452.002C480.853 437.71 472.783 415.865 472.62 408.062L419.752 409.14Z" fill="#263238" stroke="#263238" stroke-linecap="round" stroke-linejoin="round"/>
<path d="M394.183 430.306C393.199 430.231 392.211 430.231 391.227 430.306" stroke="#7F7F7F" stroke-width="0.75" stroke-linecap="round" stroke-linejoin="round"/>
<path d="M396.104 421.481C396.104 421.481 404.839 424.053 408.268 435.449C408.313 435.636 408.297 435.832 408.224 436.01C408.15 436.188 408.023 436.338 407.859 436.44C407.696 436.541 407.505 436.588 407.313 436.575C407.121 436.562 406.938 436.488 406.79 436.365C404.448 433.956 401.565 432.142 398.38 431.074" stroke="#7F7F7F" stroke-width="0.75" stroke-linecap="round" stroke-linejoin="round"/>
<path d="M330.644 469.147C330.644 464.343 309.952 461.757 315.494 457.323C321.037 452.889 333.6 467.299 333.6 467.299" stroke="#7F7F7F" stroke-width="0.75" stroke-linecap="round" stroke-linejoin="round"/>
<path d="M432.315 488.361C432.315 482.863 412.539 479.862 413.53 473.95C414.52 468.038 427.083 479.685 427.083 479.685" stroke="#7F7F7F" stroke-width="0.75" stroke-linecap="round" stroke-linejoin="round"/>
<path d="M331.412 565.187L333.585 570.213C333.705 570.491 333.918 570.718 334.188 570.856C334.458 570.993 334.767 571.033 335.063 570.966C339.837 569.887 359.76 565.187 366.751 560.162C366.954 560.013 367.108 559.807 367.192 559.57C367.276 559.333 367.287 559.076 367.224 558.832L365.864 553.23C365.818 553.037 365.729 552.857 365.601 552.704C365.474 552.551 365.314 552.43 365.132 552.35C364.95 552.269 364.752 552.232 364.553 552.242C364.355 552.251 364.161 552.306 363.987 552.403C360.839 554.117 352.074 558.211 332.284 563.414C332.104 563.463 331.935 563.549 331.791 563.668C331.647 563.787 331.529 563.935 331.447 564.103C331.364 564.271 331.318 564.455 331.312 564.642C331.306 564.829 331.34 565.015 331.412 565.187Z" fill="#999999" stroke="#263238" stroke-linecap="round" stroke-linejoin="round"/>
<path d="M408.15 561.049C408.125 560.875 408.145 560.699 408.208 560.535C408.271 560.372 408.375 560.228 408.511 560.116C408.646 560.005 408.807 559.93 408.98 559.899C409.152 559.869 409.329 559.883 409.495 559.94C411.896 560.689 414.463 560.725 416.885 560.044C422.368 558.802 438.05 553.836 442.72 552.343C442.874 552.294 443.036 552.282 443.195 552.308C443.354 552.334 443.504 552.397 443.634 552.492C443.763 552.587 443.869 552.712 443.941 552.856C444.014 552.999 444.051 553.158 444.05 553.319V559.852C444.052 560.049 443.996 560.243 443.888 560.408C443.78 560.574 443.626 560.704 443.444 560.783C439.779 562.423 420.136 570.833 409.864 568.542C409.664 568.495 409.483 568.388 409.345 568.235C409.208 568.081 409.121 567.889 409.096 567.685L408.15 561.049Z" fill="#999999" stroke="#263238" stroke-linecap="round" stroke-linejoin="round"/>
<path d="M423.964 424.187C423.822 426.23 423.076 428.184 421.821 429.803C417.476 435.198 398.365 443.992 389.808 454.929" stroke="#7F7F7F" stroke-linecap="round" stroke-linejoin="round"/>
<path d="M423.033 416.797C423.364 417.886 423.616 418.997 423.787 420.122" stroke="#7F7F7F" stroke-linecap="round" stroke-linejoin="round"/>
<path d="M309.848 591.821C311.054 594.02 311.926 596.386 312.434 598.842H365.805C366.003 596.516 367.056 594.346 368.761 592.752" stroke="#263238" stroke-linecap="round" stroke-linejoin="round"/>
<path d="M402.593 591.821C402.593 591.821 409.983 592.383 412.746 598.842H440.651C441.493 596.913 441.993 594.853 442.129 592.752" stroke="#263238" stroke-linecap="round" stroke-linejoin="round"/>
<path d="M358.844 328.116C359.523 330.718 360.233 333.304 360.942 335.831C368.332 362.435 377.939 413.057 377.939 413.057C425.235 423.033 475.118 413.057 475.118 413.057C475.384 402.031 474.039 387.473 472.546 372.175C480.291 370.032 485.848 362.879 486.203 350.981C486.572 336.57 483.956 310.632 482.508 298.512C481.222 287.856 482.138 281.515 465.629 273.386C457.352 268.612 443.607 266.351 426.713 264.089C393.458 259.655 369.456 266.38 360.942 270.001C354.188 268.228 352.311 276.15 352.311 276.15C348.571 273.327 344.226 285.299 344.226 285.299C333.289 299.251 324.687 322.751 321.82 331.117C321.185 332.946 320.023 334.545 318.479 335.713C310.72 341.625 315.036 348.941 315.036 348.941L330.924 353.804C330.924 353.804 338.625 355.814 344.507 345.69C349.414 337.236 357.454 322.884 358.844 328.116Z" fill="#4633FF"/>
<mask id="mask0_419_876" style="mask-type:luminance" maskUnits="userSpaceOnUse" x="313" y="262" width="174" height="156">
<path d="M358.844 328.116C359.523 330.718 360.233 333.304 360.942 335.831C368.332 362.435 377.939 413.057 377.939 413.057C425.235 423.033 475.118 413.057 475.118 413.057C475.384 402.031 474.039 387.473 472.546 372.175C480.291 370.032 485.848 362.879 486.203 350.981C486.572 336.57 483.956 310.632 482.508 298.512C481.222 287.856 482.138 281.515 465.629 273.386C457.352 268.612 443.607 266.351 426.713 264.089C393.458 259.655 369.456 266.38 360.942 270.001C354.188 268.228 352.311 276.15 352.311 276.15C348.571 273.327 344.226 285.299 344.226 285.299C333.289 299.251 324.687 322.751 321.82 331.117C321.185 332.946 320.023 334.545 318.479 335.713C310.72 341.625 315.036 348.941 315.036 348.941L330.924 353.804C330.924 353.804 338.625 355.814 344.507 345.69C349.414 337.236 357.454 322.884 358.844 328.116Z" fill="white"/>
</mask>
<g mask="url(#mask0_419_876)">
<path opacity="0.3" d="M333.851 347.138C333.851 347.138 333.481 339.748 327.569 338.462C321.657 337.176 329.225 334.959 333.851 336.067C338.477 337.176 337.398 333.111 341.359 326.46C345.32 319.809 347.271 314.548 350.611 318.376C353.951 322.204 357.425 322.81 358.844 328.042C360.262 333.274 353.242 345.778 353.242 345.778L342.216 354.336L336.614 357.469H328.264L325.396 350.241L333.851 347.138Z" fill="black"/>
</g>
<path d="M358.844 328.116C359.523 330.718 360.233 333.304 360.942 335.831C368.332 362.435 377.939 413.057 377.939 413.057C425.235 423.033 475.118 413.057 475.118 413.057C475.384 402.031 474.039 387.473 472.546 372.175C480.291 370.032 485.848 362.879 486.203 350.981C486.572 336.57 483.956 310.632 482.508 298.512C481.222 287.856 482.138 281.515 465.629 273.386C457.352 268.612 443.607 266.351 426.713 264.089C393.458 259.655 369.456 266.38 360.942 270.001C354.188 268.228 352.311 276.15 352.311 276.15C348.571 273.327 344.226 285.299 344.226 285.299C333.289 299.251 324.687 322.751 321.82 331.117C321.185 332.946 320.023 334.545 318.479 335.713C310.72 341.625 315.036 348.941 315.036 348.941L330.924 353.804C330.924 353.804 338.625 355.814 344.507 345.69C349.414 337.236 357.454 322.884 358.844 328.116Z" stroke="#263238" stroke-linecap="round" stroke-linejoin="round"/>
<path opacity="0.3" d="M475.118 412.983C475.156 403.486 474.687 393.994 473.714 384.546C475.325 407.056 428.458 414.106 426.98 401.898C425.502 389.69 472.546 372.102 446.947 378.25C424.615 383.615 381.324 378.487 370.683 377.097C374.777 396.311 377.94 412.983 377.94 412.983C425.236 422.96 475.118 412.983 475.118 412.983Z" fill="black"/>
<path opacity="0.3" d="M453.628 299.916C453.628 299.916 446.933 319.5 446.947 329.846C446.962 340.192 428.192 347.138 428.147 347.138C438.212 345.098 447.997 342.394 452.667 341.034C453.472 340.807 454.172 340.306 454.646 339.618C455.121 338.93 455.341 338.098 455.269 337.265C454.076 324.852 453.528 312.386 453.628 299.916Z" fill="black"/>
<path d="M352.651 294.994C352.715 304.222 354.38 313.369 357.573 322.027C357.665 322.281 357.675 322.557 357.599 322.817C357.524 323.076 357.368 323.305 357.154 323.47C356.939 323.635 356.678 323.727 356.408 323.733C356.138 323.739 355.873 323.659 355.651 323.505C353.109 321.687 349.518 317.992 346.281 310.543" stroke="#263238" stroke-width="0.75" stroke-linecap="round" stroke-linejoin="round"/>
<path d="M478.074 355.341C474.172 342.408 467.418 339.172 462.186 338.846C462.024 338.823 461.873 338.753 461.751 338.644C461.629 338.536 461.543 338.393 461.501 338.235C461.46 338.077 461.467 337.911 461.52 337.757C461.574 337.602 461.671 337.467 461.801 337.368C464.846 335.728 470.773 334.412 478.059 342.482" stroke="#263238" stroke-width="0.75" stroke-linecap="round" stroke-linejoin="round"/>
<path d="M403.095 318.332C403.032 318.876 402.771 319.378 402.363 319.742C401.954 320.106 401.426 320.307 400.878 320.307C400.331 320.307 399.802 320.106 399.393 319.742C398.985 319.378 398.724 318.876 398.661 318.332C398.625 318.019 398.655 317.703 398.75 317.403C398.845 317.102 399.002 316.826 399.212 316.591C399.421 316.356 399.678 316.168 399.965 316.039C400.252 315.91 400.563 315.844 400.878 315.844C401.193 315.844 401.504 315.91 401.791 316.039C402.078 316.168 402.335 316.356 402.544 316.591C402.754 316.826 402.911 317.102 403.006 317.403C403.101 317.703 403.131 318.019 403.095 318.332Z" fill="#999999" stroke="#263238" stroke-width="0.75" stroke-linecap="round" stroke-linejoin="round"/>
<path d="M406.095 343.488C406.095 343.926 405.965 344.355 405.722 344.719C405.478 345.084 405.132 345.368 404.727 345.536C404.322 345.704 403.876 345.747 403.446 345.662C403.016 345.576 402.621 345.365 402.311 345.055C402.001 344.745 401.79 344.35 401.704 343.92C401.618 343.49 401.662 343.044 401.83 342.639C401.998 342.234 402.282 341.888 402.647 341.644C403.011 341.401 403.44 341.271 403.878 341.271C404.466 341.271 405.03 341.504 405.446 341.92C405.862 342.336 406.095 342.9 406.095 343.488Z" fill="#999999" stroke="#263238" stroke-width="0.75" stroke-linecap="round" stroke-linejoin="round"/>
<path d="M413.53 404.115C413.533 404.557 413.404 404.99 413.161 405.359C412.917 405.728 412.57 406.017 412.162 406.188C411.755 406.359 411.306 406.405 410.872 406.321C410.438 406.236 410.039 406.025 409.725 405.714C409.411 405.402 409.197 405.004 409.11 404.571C409.023 404.138 409.066 403.688 409.235 403.28C409.403 402.871 409.689 402.521 410.056 402.276C410.424 402.03 410.856 401.898 411.298 401.898C411.887 401.898 412.453 402.132 412.871 402.547C413.289 402.962 413.526 403.526 413.53 404.115Z" fill="#999999" stroke="#263238" stroke-linecap="round" stroke-linejoin="round"/>
<path d="M371.082 359.967C371.082 359.967 363.825 366.884 367.283 367.002C370.742 367.12 375.102 362.361 379.107 361.814C383.113 361.268 376.639 358.858 376.639 358.858L371.082 359.967Z" fill="white" stroke="#263238" stroke-linecap="round" stroke-linejoin="round"/>
<path d="M413.456 352.178C413.131 351.887 412.749 351.665 412.334 351.528C411.92 351.391 411.482 351.34 411.047 351.38C407.5 351.676 397.301 352.444 393.459 352.208C386.63 351.779 366.515 347.522 366.515 347.522C366.052 347.444 365.577 347.469 365.125 347.596L352.666 351.262C352.212 351.393 351.796 351.631 351.454 351.956L343.916 358.873C343.668 359.105 343.459 359.375 343.295 359.672L341.729 362.539C341.405 363.128 341.283 363.806 341.382 364.471C341.481 365.136 341.795 365.75 342.275 366.219L354.72 366.544C355.489 366.581 356.242 366.316 356.819 365.805L360.514 362.642C360.76 362.428 360.975 362.179 361.149 361.903C362.051 360.425 365.583 355.548 371.052 355.991C371.052 355.991 359.228 362.273 361.46 364.859C363.692 367.446 372.737 360.056 375.693 360.795C378.649 361.534 378.841 368.791 394.907 366.16C395.625 366.039 396.361 366.074 397.065 366.263L411.697 370.357C412.131 370.478 412.584 370.51 413.031 370.453C413.477 370.396 413.908 370.25 414.298 370.024C414.687 369.798 415.028 369.497 415.299 369.138C415.571 368.779 415.768 368.37 415.88 367.934C417.018 363.736 418.023 356.346 413.456 352.178Z" fill="white" stroke="#263238" stroke-linecap="round" stroke-linejoin="round"/>
<path d="M368.259 350.168L365.125 350.7C363.597 350.959 362.171 351.634 361.002 352.651L357.676 355.504C357.11 356.013 356.613 356.594 356.198 357.233L354.055 360.499C353.823 360.86 353.561 361.201 353.272 361.519C352.001 362.997 348.498 367.091 352.281 366.529" fill="white"/>
<path d="M368.259 350.168L365.125 350.7C363.597 350.959 362.171 351.634 361.002 352.651L357.676 355.504C357.11 356.013 356.613 356.594 356.198 357.233L354.055 360.499C353.823 360.86 353.561 361.201 353.272 361.519C352.001 362.997 348.498 367.091 352.281 366.529" stroke="#263238" stroke-linecap="round" stroke-linejoin="round"/>
<path d="M359.435 351.276L356.198 352.163C355.187 352.41 354.259 352.92 353.508 353.641L350.981 356.065C350.732 356.286 350.509 356.534 350.316 356.804L346.163 362.317C346.163 362.317 343.946 366.219 346.163 366.293" fill="white"/>
<path d="M359.435 351.276L356.198 352.163C355.187 352.41 354.259 352.92 353.508 353.641L350.981 356.065C350.732 356.286 350.509 356.534 350.316 356.804L346.163 362.317C346.163 362.317 343.946 366.219 346.163 366.293" stroke="#263238" stroke-linecap="round" stroke-linejoin="round"/>
<path d="M453.746 296.783C453.432 310.295 453.926 323.813 455.224 337.266C455.297 338.098 455.077 338.93 454.602 339.618C454.127 340.306 453.427 340.807 452.623 341.035C440.872 344.509 428.903 347.2 416.796 349.09" stroke="#263238" stroke-linecap="round" stroke-linejoin="round"/>
<path d="M454.456 287.619C454.263 289.097 454.101 290.708 453.983 292.349" stroke="#263238" stroke-width="0.75" stroke-linecap="round" stroke-linejoin="round"/>
<path d="M459.407 273.785C457.722 275.263 456.451 277.938 455.579 281.486" stroke="#263238" stroke-width="0.75" stroke-linecap="round" stroke-linejoin="round"/>
<path d="M385.403 265.006C385.403 265.006 386.334 262.05 391.315 260.38C396.296 258.71 413.574 256.064 422.457 260.38C431.34 264.695 414.328 288.181 414.328 288.181L406.45 299.088L399.43 304.35L396.296 294.994L392.232 290.767C392.232 290.767 383.452 283.569 384.191 276.46C384.93 269.351 385.403 265.006 385.403 265.006Z" fill="white"/>
<path d="M429.019 264.385C427.63 259.522 421.289 258.163 421.289 258.163C390.99 252.99 384.59 264.075 384.59 264.075C380.875 274.087 380.875 285.1 384.59 295.113C384.59 295.113 393.207 291.536 394.685 295.113C396.163 298.689 398.868 306.316 398.868 306.316C402.981 303.998 406.569 300.852 409.406 297.078C414.091 290.915 425.088 297.078 425.088 297.078C432.212 284.767 429.019 264.385 429.019 264.385ZM421.629 264.03C409.894 300.862 399.548 302.458 399.548 302.458C396.104 288.92 393.148 291.876 388.463 283.407C384.709 276.608 385.98 268.006 386.63 264.858C386.706 264.482 386.865 264.128 387.095 263.821C387.326 263.515 387.621 263.263 387.96 263.084C399.607 257.172 413.855 259.345 419.722 260.631C420.086 260.706 420.429 260.857 420.729 261.074C421.03 261.291 421.281 261.569 421.467 261.89C421.653 262.211 421.768 262.568 421.806 262.937C421.844 263.305 421.804 263.678 421.688 264.03H421.629Z" fill="#4633FF"/>
<mask id="mask1_419_876" style="mask-type:luminance" maskUnits="userSpaceOnUse" x="381" y="256" width="49" height="51">
<path d="M429.019 264.385C427.63 259.522 421.289 258.163 421.289 258.163C390.99 252.99 384.59 264.075 384.59 264.075C380.875 274.087 380.875 285.1 384.59 295.113C384.59 295.113 393.207 291.536 394.685 295.113C396.163 298.689 398.868 306.316 398.868 306.316C402.981 303.998 406.569 300.852 409.406 297.078C414.091 290.915 425.088 297.078 425.088 297.078C432.212 284.767 429.019 264.385 429.019 264.385ZM421.629 264.03C409.894 300.862 399.548 302.458 399.548 302.458C396.104 288.92 393.148 291.876 388.463 283.407C384.709 276.608 385.98 268.006 386.63 264.858C386.706 264.482 386.865 264.128 387.095 263.821C387.326 263.515 387.621 263.263 387.96 263.084C399.607 257.172 413.855 259.345 419.722 260.631C420.086 260.706 420.429 260.857 420.729 261.074C421.03 261.291 421.281 261.569 421.467 261.89C421.653 262.211 421.768 262.568 421.806 262.937C421.844 263.305 421.804 263.678 421.688 264.03H421.629Z" fill="white"/>
</mask>
<g mask="url(#mask1_419_876)">
<path opacity="0.4" d="M429.019 264.385C427.63 259.522 421.289 258.163 421.289 258.163C390.99 252.99 384.59 264.075 384.59 264.075C380.875 274.087 380.875 285.1 384.59 295.113C384.59 295.113 393.207 291.536 394.685 295.113C396.163 298.689 398.868 306.316 398.868 306.316C402.981 303.998 406.569 300.852 409.406 297.078C414.091 290.915 425.088 297.078 425.088 297.078C432.212 284.767 429.019 264.385 429.019 264.385ZM421.629 264.03C409.894 300.862 399.548 302.458 399.548 302.458C396.104 288.92 393.148 291.876 388.463 283.407C384.709 276.608 385.98 268.006 386.63 264.858C386.706 264.482 386.865 264.128 387.095 263.821C387.326 263.515 387.621 263.263 387.96 263.084C399.607 257.172 413.855 259.345 419.722 260.631C420.086 260.706 420.429 260.857 420.729 261.074C421.03 261.291 421.281 261.569 421.467 261.89C421.653 262.211 421.768 262.568 421.806 262.937C421.844 263.305 421.804 263.678 421.688 264.03H421.629Z" fill="white"/>
</g>
<path d="M429.019 264.385C427.63 259.522 421.289 258.163 421.289 258.163C390.99 252.99 384.59 264.075 384.59 264.075C380.875 274.087 380.875 285.1 384.59 295.113C384.59 295.113 393.207 291.536 394.685 295.113C396.163 298.689 398.868 306.316 398.868 306.316C402.981 303.998 406.569 300.852 409.406 297.078C414.091 290.915 425.088 297.078 425.088 297.078C432.212 284.767 429.019 264.385 429.019 264.385ZM421.629 264.03C409.894 300.862 399.548 302.458 399.548 302.458C396.104 288.92 393.148 291.876 388.463 283.407C384.709 276.608 385.98 268.006 386.63 264.858C386.706 264.482 386.865 264.128 387.095 263.821C387.326 263.515 387.621 263.263 387.96 263.084C399.607 257.172 413.855 259.345 419.722 260.631C420.086 260.706 420.429 260.857 420.729 261.074C421.03 261.291 421.281 261.569 421.467 261.89C421.653 262.211 421.768 262.568 421.806 262.937C421.844 263.305 421.804 263.678 421.688 264.03H421.629Z" stroke="#263238" stroke-linecap="round" stroke-linejoin="round"/>
<path d="M379.551 208.103C379.551 208.103 353.434 213.335 367.815 230.273C383.763 249.147 379.551 208.103 379.551 208.103Z" fill="#263238" stroke="#263238" stroke-linecap="round" stroke-linejoin="round"/>
<path d="M369.249 249.546C369.249 249.546 363.041 224.42 374.865 212.344C386.689 200.269 399.504 197.816 409.111 203.728C418.718 209.64 422.708 224.42 421.23 232.046C419.752 239.673 420.462 267.016 407.293 278.352C394.124 289.688 386.024 286.895 377.319 271.45C371.54 261.325 368.805 258.414 369.249 249.546Z" fill="white" stroke="#263238" stroke-linecap="round" stroke-linejoin="round"/>
<path d="M415.022 244.624C415.022 244.624 405.09 234.766 402.046 223.193C399.001 211.62 397.286 209.64 385.95 215.301C374.614 220.961 356.937 213.35 361.563 199.043C366.426 184.026 381.28 203.477 395.557 198.555C409.835 193.633 419.989 202.501 420.003 215.552C420.003 215.552 428.635 223.932 420.003 245.6L415.022 244.624Z" fill="#263238" stroke="#263238" stroke-linecap="round" stroke-linejoin="round"/>
<path d="M411.904 242.969C411.904 242.969 414.416 229.194 421.393 230.465C428.369 231.736 423.388 252.073 415.17 249.856" fill="white"/>
<path d="M411.904 242.969C411.904 242.969 414.416 229.194 421.393 230.465C428.369 231.736 423.388 252.073 415.17 249.856" stroke="#263238" stroke-linecap="round" stroke-linejoin="round"/>
<path d="M378.693 247.64C378.693 247.64 375.944 260.424 376.846 262.612C377.747 264.799 386.187 263.129 386.187 263.129" fill="white"/>
<path d="M378.693 247.64C378.693 247.64 375.944 260.424 376.846 262.612C377.747 264.799 386.187 263.129 386.187 263.129" stroke="#263238" stroke-linecap="round" stroke-linejoin="round"/>
<path d="M387.369 268.701C387.369 268.701 393.991 271.317 399.829 262.611L387.369 268.701Z" fill="white"/>
<path d="M387.369 268.701C387.369 268.701 393.991 271.317 399.829 262.611" stroke="#263238" stroke-linecap="round" stroke-linejoin="round"/>
<path d="M374.156 248.704C374.392 249.886 374.082 250.965 373.461 251.098C372.84 251.231 372.116 250.374 371.865 249.177C371.614 247.979 371.865 246.915 372.56 246.782C373.254 246.649 373.934 247.506 374.156 248.704Z" fill="#263238"/>
<path d="M390.355 247.403C390.606 248.585 390.355 249.664 389.66 249.797C388.965 249.93 388.33 249.058 388.079 247.876C387.827 246.693 388.079 245.614 388.773 245.481C389.468 245.348 390.192 246.206 390.355 247.403Z" fill="#263238"/>
<path d="M377.555 248.141C377.895 251.497 374.599 254.571 370.047 255.014C365.495 255.458 361.652 253.122 361.312 249.767C360.972 246.412 364.504 244.949 368.998 244.491C373.491 244.033 377.23 244.801 377.555 248.141Z" stroke="#263238" stroke-linecap="round" stroke-linejoin="round"/>
<path d="M398.469 246.058C398.809 249.399 395.439 252.488 390.961 252.931C386.482 253.374 382.566 251.024 382.226 247.684C381.886 244.344 385.418 242.851 389.911 242.408C394.404 241.964 398.144 242.703 398.469 246.058Z" stroke="#263238" stroke-linecap="round" stroke-linejoin="round"/>
<path d="M377.555 248.142L382.226 247.684" stroke="#263238" stroke-linecap="round" stroke-linejoin="round"/>
<path d="M397.907 244.373L415.082 234.249" stroke="#263238" stroke-linecap="round" stroke-linejoin="round"/>
<path d="M418.023 260.144L418.836 262.109" stroke="#263238" stroke-linecap="round" stroke-linejoin="round"/>
<path d="M367.874 242.747C367.874 242.747 370.49 239.421 373.698 241.018L367.874 242.747Z" fill="white"/>
<path d="M367.874 242.747C367.874 242.747 370.49 239.421 373.698 241.018" stroke="#263238" stroke-linecap="round" stroke-linejoin="round"/>
<path d="M394.626 241.254C394.626 241.254 390.029 236.82 385.595 239.953L394.626 241.254Z" fill="white"/>
<path d="M394.626 241.254C394.626 241.254 390.029 236.82 385.595 239.953" stroke="#263238" stroke-linecap="round" stroke-linejoin="round"/>
<path d="M373.683 200.713C380.674 202.93 392.439 205.649 402.046 202.738C416.826 198.304 411.756 214.857 415.082 219.424" stroke="#7F7F7F" stroke-linecap="round" stroke-linejoin="round"/>
<path d="M367.623 198.496C367.623 198.496 368.791 199.013 370.786 199.723" stroke="#7F7F7F" stroke-linecap="round" stroke-linejoin="round"/>
<path d="M385.285 208.945C386.068 208.709 386.881 208.428 387.739 208.103" stroke="#7F7F7F" stroke-linecap="round" stroke-linejoin="round"/>
<path d="M369.249 206.994C369.249 206.994 372.382 211.827 382.462 209.684" stroke="#7F7F7F" stroke-linecap="round" stroke-linejoin="round"/>
<path d="M406.79 216.469C407.57 222.174 409.72 227.605 413.057 232.298" stroke="#7F7F7F" stroke-linecap="round" stroke-linejoin="round"/>
<path d="M406.45 211.236C406.43 212.119 406.459 213.002 406.539 213.882" stroke="#7F7F7F" stroke-linecap="round" stroke-linejoin="round"/>
<path opacity="0.3" d="M419.545 369.796C419.275 370.021 419.081 370.324 418.99 370.664C418.898 371.003 418.913 371.362 419.032 371.693C419.151 372.024 419.37 372.31 419.657 372.512C419.944 372.715 420.287 372.824 420.639 372.826C430.63 372.826 457.589 372.944 467.935 372.338C480.867 371.599 470.994 357.558 460.545 362.908C451.071 367.859 430.911 359.612 419.545 369.796Z" fill="black"/>
<path d="M306.995 355.932C306.995 355.932 313.04 339.837 328.205 342.393C343.369 344.95 331.781 357.646 324.48 358.77C324.48 358.77 323.372 354.35 306.995 355.932Z" fill="white" stroke="#263238" stroke-linecap="round" stroke-linejoin="round"/>
<path d="M294.122 365.066C292.127 367.062 287.323 367.239 290.56 362.908C293.208 359.425 296.798 356.773 300.906 355.267C308.089 352.06 310.897 352.71 317.401 351.276C323.904 349.843 325.131 352.503 327.377 353.73C332.742 356.686 334.028 357.188 335.388 360.144C336.748 363.1 338.226 366.943 334.028 366.943C330.215 366.943 329.964 360.632 326.269 360.883C322.574 361.135 320.726 366.943 318.14 366.943H317.164C314.947 366.943 314.829 365.096 316.174 362.199C317.519 359.302 319.012 356.686 319.012 356.686C316.817 357.841 315.062 359.685 314.016 361.933C312.242 365.702 311.917 367.283 308.651 367.283C305.384 367.283 305.695 364.859 308.858 359.509C306.979 360.634 305.426 362.228 304.35 364.135C302.754 367.091 301.911 366.943 299.827 366.943C297.078 366.943 297.27 362.421 302.133 359.465C302.162 359.465 301.083 358.134 294.122 365.066Z" fill="white" stroke="#263238" stroke-linecap="round" stroke-linejoin="round"/>
<path d="M313.159 354.262C313.159 354.262 311.252 354.173 310.04 357.395L313.159 354.262Z" fill="white"/>
<path d="M313.159 354.262C313.159 354.262 311.252 354.173 310.04 357.395" stroke="#263238" stroke-width="0.75" stroke-linecap="round" stroke-linejoin="round"/>
<path d="M208.738 603.778H203.255L201.777 386.128H208.738V603.778Z" fill="#858585" stroke="#263238" stroke-linecap="round" stroke-linejoin="round"/>
<path d="M214.207 603.778H208.738V386.128H215.685L214.207 603.778Z" fill="#999999" stroke="#263238" stroke-linecap="round" stroke-linejoin="round"/>
<path d="M521.719 372.812H145.997V386.143H521.719V372.812Z" fill="#263238" stroke="#263238" stroke-linecap="round" stroke-linejoin="round"/>
<path d="M600.231 372.812H516.103V386.143H600.231V372.812Z" fill="#858585" stroke="#263238" stroke-linecap="round" stroke-linejoin="round"/>
<path d="M538.761 386.128H165.24V408.091H538.761V386.128Z" fill="#4633FF" stroke="#263238" stroke-miterlimit="10"/>
<path d="M538.76 408.105H582.258V386.142H538.76V408.105Z" fill="#4633FF"/>
<mask id="mask2_419_876" style="mask-type:luminance" maskUnits="userSpaceOnUse" x="538" y="386" width="45" height="23">
<path d="M538.76 408.105H582.258V386.142H538.76V408.105Z" fill="white"/>
</mask>
<g mask="url(#mask2_419_876)">
<path opacity="0.3" d="M538.76 408.105H582.258V386.142H538.76V408.105Z" fill="black"/>
</g>
<path d="M538.76 408.105H582.258V386.142H538.76V408.105Z" stroke="#263238" stroke-miterlimit="10"/>
<path d="M538.761 603.778H533.292L531.814 386.128H538.761V603.778Z" fill="#858585" stroke="#263238" stroke-linecap="round" stroke-linejoin="round"/>
<path d="M544.244 603.778H538.76V386.128H545.722L544.244 603.778Z" fill="#999999" stroke="#263238" stroke-linecap="round" stroke-linejoin="round"/>
<path d="M165.24 603.778H159.757L158.279 386.128H165.24V603.778Z" fill="#858585" stroke="#263238" stroke-linecap="round" stroke-linejoin="round"/>
<path d="M170.709 603.778H165.24V386.128H172.187L170.709 603.778Z" fill="#999999" stroke="#263238" stroke-linecap="round" stroke-linejoin="round"/>
<path d="M582.258 603.778H576.775L575.297 386.128H582.258V603.778Z" fill="#858585" stroke="#263238" stroke-linecap="round" stroke-linejoin="round"/>
<path d="M587.727 603.778H582.258V386.128H589.205L587.727 603.778Z" fill="#999999" stroke="#263238" stroke-linecap="round" stroke-linejoin="round"/>
<path d="M388.788 371.333H344.758C344.326 371.329 343.912 371.155 343.608 370.847C343.303 370.54 343.133 370.125 343.133 369.693V366.057L390.429 367.535V369.693C390.429 370.128 390.256 370.545 389.948 370.853C389.64 371.16 389.223 371.333 388.788 371.333Z" fill="#858585" stroke="#263238" stroke-linecap="round" stroke-linejoin="round"/>
<path d="M338.211 371.333H249.693C248.965 371.306 248.263 371.054 247.684 370.612C247.104 370.17 246.675 369.56 246.456 368.865L227.449 307.173C227.307 306.813 227.257 306.423 227.302 306.039C227.348 305.654 227.489 305.287 227.711 304.971C227.934 304.654 228.232 304.398 228.579 304.225C228.925 304.052 229.309 303.968 229.696 303.981H318.213C318.94 304.005 319.642 304.254 320.222 304.693C320.801 305.132 321.231 305.741 321.45 306.434L340.457 368.126C340.599 368.487 340.649 368.877 340.603 369.262C340.557 369.647 340.417 370.015 340.194 370.332C339.972 370.65 339.674 370.907 339.328 371.082C338.982 371.257 338.598 371.343 338.211 371.333Z" fill="#999999" stroke="#263238" stroke-linecap="round" stroke-linejoin="round"/>
<path d="M344.374 368.126L325.367 306.434C325.147 305.741 324.718 305.132 324.138 304.693C323.559 304.253 322.857 304.005 322.13 303.98H318.213C318.94 304.005 319.642 304.253 320.222 304.693C320.801 305.132 321.231 305.741 321.45 306.434L340.457 368.126C340.599 368.487 340.649 368.877 340.603 369.262C340.557 369.647 340.417 370.014 340.194 370.332C339.972 370.649 339.674 370.907 339.328 371.082C338.982 371.256 338.598 371.343 338.211 371.333H342.187C342.569 371.333 342.946 371.239 343.284 371.061C343.622 370.882 343.912 370.623 344.127 370.307C344.343 369.991 344.478 369.627 344.521 369.247C344.564 368.867 344.514 368.482 344.374 368.126Z" fill="#858585" stroke="#263238" stroke-linecap="round" stroke-linejoin="round"/>
<path d="M289.437 337.649C289.545 338.336 289.501 339.039 289.308 339.707C289.115 340.375 288.777 340.993 288.319 341.516C287.861 342.039 287.293 342.455 286.656 342.734C286.019 343.014 285.328 343.15 284.633 343.133C283.125 343.095 281.679 342.523 280.553 341.519C279.427 340.514 278.694 339.143 278.485 337.649C278.376 336.963 278.42 336.261 278.613 335.593C278.806 334.926 279.144 334.309 279.602 333.787C280.061 333.265 280.629 332.85 281.266 332.573C281.903 332.295 282.594 332.161 283.288 332.181C284.793 332.221 286.236 332.792 287.361 333.792C288.486 334.793 289.221 336.159 289.437 337.649Z" fill="white" stroke="#263238" stroke-linecap="round" stroke-linejoin="round"/>
<path d="M298.513 665V653.73H300.606V665H298.513ZM314.313 656.306C315 656.306 315.606 656.44 316.132 656.708C316.669 656.977 317.087 657.39 317.388 657.948C317.689 658.496 317.839 659.204 317.839 660.073V665H315.826V660.331C315.826 659.569 315.66 659 315.327 658.624C314.994 658.249 314.517 658.061 313.894 658.061C313.454 658.061 313.062 658.157 312.719 658.351C312.386 658.544 312.123 658.828 311.93 659.204C311.748 659.58 311.656 660.057 311.656 660.637V665H309.644V660.331C309.644 659.569 309.478 659 309.145 658.624C308.812 658.249 308.334 658.061 307.712 658.061C307.272 658.061 306.88 658.157 306.537 658.351C306.204 658.544 305.941 658.828 305.748 659.204C305.565 659.58 305.474 660.057 305.474 660.637V665H303.462V656.403H305.377V658.689L305.039 658.013C305.329 657.454 305.748 657.03 306.295 656.741C306.853 656.451 307.487 656.306 308.195 656.306C309 656.306 309.698 656.505 310.288 656.902C310.889 657.299 311.286 657.9 311.479 658.705L310.69 658.431C310.969 657.787 311.431 657.272 312.075 656.886C312.719 656.499 313.465 656.306 314.313 656.306ZM325.707 665V663.261L325.595 662.891V659.848C325.595 659.258 325.418 658.801 325.063 658.479C324.709 658.147 324.173 657.98 323.453 657.98C322.97 657.98 322.493 658.056 322.021 658.206C321.559 658.356 321.167 658.565 320.845 658.834L320.056 657.369C320.518 657.014 321.065 656.751 321.699 656.58C322.343 656.397 323.008 656.306 323.695 656.306C324.94 656.306 325.901 656.607 326.577 657.208C327.264 657.798 327.607 658.716 327.607 659.961V665H325.707ZM323.003 665.113C322.359 665.113 321.795 665.005 321.312 664.791C320.829 664.565 320.453 664.259 320.185 663.873C319.928 663.476 319.799 663.03 319.799 662.537C319.799 662.054 319.911 661.619 320.137 661.233C320.373 660.846 320.754 660.54 321.28 660.315C321.806 660.089 322.504 659.977 323.373 659.977H325.868V661.313H323.518C322.831 661.313 322.369 661.426 322.133 661.651C321.897 661.866 321.779 662.134 321.779 662.456C321.779 662.821 321.924 663.111 322.214 663.326C322.504 663.54 322.906 663.648 323.421 663.648C323.915 663.648 324.355 663.535 324.741 663.309C325.139 663.084 325.423 662.751 325.595 662.311L325.933 663.519C325.74 664.023 325.391 664.415 324.886 664.694C324.393 664.973 323.765 665.113 323.003 665.113ZM334.102 668.236C333.308 668.236 332.53 668.129 331.767 667.914C331.016 667.71 330.399 667.41 329.916 667.013L330.818 665.499C331.193 665.81 331.665 666.057 332.234 666.24C332.814 666.433 333.399 666.53 333.989 666.53C334.934 666.53 335.626 666.309 336.066 665.869C336.506 665.44 336.726 664.791 336.726 663.921V662.392L336.887 660.444L336.823 658.496V656.403H338.739V663.696C338.739 665.252 338.342 666.395 337.547 667.125C336.753 667.866 335.605 668.236 334.102 668.236ZM333.844 664.614C333.029 664.614 332.288 664.442 331.623 664.098C330.968 663.744 330.447 663.256 330.061 662.633C329.685 662.011 329.497 661.281 329.497 660.444C329.497 659.617 329.685 658.893 330.061 658.27C330.447 657.648 330.968 657.165 331.623 656.821C332.288 656.478 333.029 656.306 333.844 656.306C334.574 656.306 335.229 656.451 335.809 656.741C336.388 657.03 336.85 657.481 337.193 658.093C337.547 658.705 337.724 659.488 337.724 660.444C337.724 661.399 337.547 662.188 337.193 662.81C336.85 663.422 336.388 663.878 335.809 664.179C335.229 664.469 334.574 664.614 333.844 664.614ZM334.15 662.907C334.655 662.907 335.106 662.805 335.503 662.601C335.9 662.386 336.206 662.097 336.42 661.732C336.646 661.356 336.758 660.927 336.758 660.444C336.758 659.961 336.646 659.537 336.42 659.172C336.206 658.796 335.9 658.512 335.503 658.318C335.106 658.115 334.655 658.013 334.15 658.013C333.646 658.013 333.19 658.115 332.782 658.318C332.385 658.512 332.073 658.796 331.848 659.172C331.633 659.537 331.526 659.961 331.526 660.444C331.526 660.927 331.633 661.356 331.848 661.732C332.073 662.097 332.385 662.386 332.782 662.601C333.19 662.805 333.646 662.907 334.15 662.907ZM345.426 665.113C344.47 665.113 343.633 664.925 342.914 664.549C342.206 664.163 341.653 663.637 341.256 662.971C340.869 662.306 340.676 661.549 340.676 660.701C340.676 659.843 340.864 659.086 341.24 658.431C341.626 657.766 342.152 657.245 342.817 656.869C343.494 656.494 344.261 656.306 345.12 656.306C345.957 656.306 346.703 656.488 347.358 656.853C348.012 657.218 348.528 657.734 348.903 658.399C349.279 659.064 349.467 659.848 349.467 660.75C349.467 660.835 349.461 660.932 349.451 661.039C349.451 661.147 349.445 661.249 349.435 661.345H342.27V660.009H348.372L347.583 660.428C347.594 659.934 347.492 659.499 347.277 659.123C347.062 658.748 346.767 658.453 346.392 658.238C346.027 658.023 345.603 657.916 345.12 657.916C344.626 657.916 344.191 658.023 343.816 658.238C343.451 658.453 343.161 658.753 342.946 659.14C342.742 659.515 342.64 659.961 342.64 660.476V660.798C342.64 661.313 342.758 661.769 342.995 662.166C343.231 662.564 343.563 662.869 343.993 663.084C344.422 663.299 344.916 663.406 345.474 663.406C345.957 663.406 346.392 663.331 346.778 663.181C347.164 663.03 347.508 662.794 347.808 662.472L348.887 663.712C348.501 664.163 348.012 664.512 347.422 664.758C346.842 664.995 346.177 665.113 345.426 665.113ZM360.615 665.113C359.885 665.113 359.236 664.952 358.667 664.63C358.098 664.308 357.647 663.825 357.315 663.181C356.993 662.526 356.832 661.699 356.832 660.701C356.832 659.692 356.998 658.866 357.331 658.222C357.674 657.578 358.13 657.1 358.699 656.789C359.279 656.467 359.917 656.306 360.615 656.306C361.463 656.306 362.209 656.488 362.853 656.853C363.508 657.218 364.023 657.728 364.399 658.383C364.785 659.038 364.978 659.81 364.978 660.701C364.978 661.592 364.785 662.365 364.399 663.02C364.023 663.674 363.508 664.19 362.853 664.565C362.209 664.93 361.463 665.113 360.615 665.113ZM355.849 665V653.054H357.862V658.399L357.701 660.685L357.765 662.971V665H355.849ZM360.39 663.39C360.873 663.39 361.302 663.283 361.678 663.068C362.064 662.853 362.37 662.542 362.595 662.134C362.821 661.726 362.933 661.249 362.933 660.701C362.933 660.143 362.821 659.666 362.595 659.268C362.37 658.861 362.064 658.549 361.678 658.335C361.302 658.12 360.873 658.013 360.39 658.013C359.907 658.013 359.472 658.12 359.086 658.335C358.699 658.549 358.393 658.861 358.168 659.268C357.942 659.666 357.83 660.143 357.83 660.701C357.83 661.249 357.942 661.726 358.168 662.134C358.393 662.542 358.699 662.853 359.086 663.068C359.472 663.283 359.907 663.39 360.39 663.39ZM367.359 668.236C366.941 668.236 366.522 668.166 366.103 668.027C365.685 667.887 365.336 667.694 365.057 667.447L365.862 665.966C366.066 666.148 366.297 666.293 366.554 666.401C366.812 666.508 367.075 666.562 367.343 666.562C367.708 666.562 368.003 666.47 368.229 666.288C368.454 666.106 368.663 665.8 368.857 665.37L369.356 664.243L369.517 664.002L372.769 656.403H374.701L370.676 665.692C370.408 666.336 370.107 666.846 369.774 667.222C369.452 667.597 369.087 667.86 368.679 668.011C368.282 668.161 367.842 668.236 367.359 668.236ZM369.13 665.306L365.25 656.403H367.343L370.499 663.825L369.13 665.306ZM383.065 665.113C382.346 665.113 381.653 665.021 380.988 664.839C380.333 664.646 379.812 664.415 379.426 664.147L380.199 662.617C380.585 662.864 381.047 663.068 381.583 663.229C382.12 663.39 382.657 663.47 383.193 663.47C383.827 663.47 384.283 663.385 384.562 663.213C384.852 663.041 384.997 662.81 384.997 662.521C384.997 662.284 384.9 662.107 384.707 661.989C384.514 661.86 384.261 661.764 383.95 661.699C383.639 661.635 383.29 661.576 382.904 661.522C382.528 661.469 382.147 661.399 381.761 661.313C381.385 661.216 381.041 661.082 380.73 660.911C380.419 660.728 380.167 660.487 379.973 660.186C379.78 659.886 379.684 659.488 379.684 658.995C379.684 658.447 379.839 657.975 380.151 657.578C380.462 657.17 380.897 656.859 381.455 656.644C382.024 656.419 382.694 656.306 383.467 656.306C384.047 656.306 384.632 656.37 385.222 656.499C385.812 656.628 386.301 656.81 386.687 657.047L385.914 658.576C385.507 658.329 385.093 658.163 384.675 658.077C384.267 657.98 383.859 657.932 383.451 657.932C382.839 657.932 382.383 658.023 382.083 658.206C381.793 658.388 381.648 658.619 381.648 658.898C381.648 659.156 381.744 659.349 381.938 659.478C382.131 659.606 382.383 659.708 382.694 659.784C383.006 659.859 383.349 659.923 383.725 659.977C384.111 660.02 384.492 660.089 384.868 660.186C385.244 660.283 385.587 660.417 385.898 660.589C386.22 660.75 386.478 660.98 386.671 661.281C386.864 661.581 386.961 661.973 386.961 662.456C386.961 662.993 386.8 663.46 386.478 663.857C386.167 664.254 385.721 664.565 385.142 664.791C384.562 665.005 383.87 665.113 383.065 665.113ZM391.93 665.113C390.986 665.113 390.256 664.871 389.741 664.388C389.225 663.894 388.968 663.17 388.968 662.215V654.503H390.98V662.166C390.98 662.574 391.082 662.891 391.286 663.116C391.501 663.342 391.796 663.454 392.172 663.454C392.622 663.454 392.998 663.336 393.299 663.1L393.862 664.533C393.626 664.726 393.336 664.871 392.993 664.968C392.649 665.064 392.295 665.113 391.93 665.113ZM387.551 658.077V656.467H393.283V658.077H387.551ZM399.099 665.113C398.219 665.113 397.435 664.925 396.748 664.549C396.061 664.163 395.519 663.637 395.122 662.971C394.725 662.306 394.526 661.549 394.526 660.701C394.526 659.843 394.725 659.086 395.122 658.431C395.519 657.766 396.061 657.245 396.748 656.869C397.435 656.494 398.219 656.306 399.099 656.306C399.99 656.306 400.778 656.494 401.465 656.869C402.163 657.245 402.705 657.76 403.091 658.415C403.489 659.07 403.687 659.832 403.687 660.701C403.687 661.549 403.489 662.306 403.091 662.971C402.705 663.637 402.163 664.163 401.465 664.549C400.778 664.925 399.99 665.113 399.099 665.113ZM399.099 663.39C399.592 663.39 400.032 663.283 400.419 663.068C400.805 662.853 401.106 662.542 401.32 662.134C401.546 661.726 401.659 661.249 401.659 660.701C401.659 660.143 401.546 659.666 401.32 659.268C401.106 658.861 400.805 658.549 400.419 658.335C400.032 658.12 399.598 658.013 399.115 658.013C398.621 658.013 398.181 658.12 397.795 658.335C397.419 658.549 397.118 658.861 396.893 659.268C396.668 659.666 396.555 660.143 396.555 660.701C396.555 661.249 396.668 661.726 396.893 662.134C397.118 662.542 397.419 662.853 397.795 663.068C398.181 663.283 398.616 663.39 399.099 663.39ZM405.612 665V656.403H407.528V658.769L407.302 658.077C407.56 657.497 407.962 657.057 408.51 656.757C409.068 656.456 409.76 656.306 410.587 656.306V658.222C410.501 658.2 410.42 658.19 410.345 658.19C410.27 658.179 410.195 658.174 410.12 658.174C409.358 658.174 408.751 658.399 408.3 658.85C407.85 659.29 407.624 659.95 407.624 660.83V665H405.612ZM413.317 668.236C412.898 668.236 412.479 668.166 412.061 668.027C411.642 667.887 411.293 667.694 411.014 667.447L411.819 665.966C412.023 666.148 412.254 666.293 412.512 666.401C412.769 666.508 413.032 666.562 413.3 666.562C413.665 666.562 413.961 666.47 414.186 666.288C414.411 666.106 414.621 665.8 414.814 665.37L415.313 664.243L415.474 664.002L418.726 656.403H420.658L416.633 665.692C416.365 666.336 416.064 666.846 415.732 667.222C415.41 667.597 415.045 667.86 414.637 668.011C414.24 668.161 413.8 668.236 413.317 668.236ZM415.088 665.306L411.207 656.403H413.3L416.456 663.825L415.088 665.306ZM424.462 665.113C423.743 665.113 423.051 665.021 422.386 664.839C421.731 664.646 421.21 664.415 420.824 664.147L421.597 662.617C421.983 662.864 422.445 663.068 422.981 663.229C423.518 663.39 424.055 663.47 424.591 663.47C425.225 663.47 425.681 663.385 425.96 663.213C426.25 663.041 426.394 662.81 426.394 662.521C426.394 662.284 426.298 662.107 426.105 661.989C425.911 661.86 425.659 661.764 425.348 661.699C425.037 661.635 424.688 661.576 424.301 661.522C423.926 661.469 423.545 661.399 423.158 661.313C422.783 661.216 422.439 661.082 422.128 660.911C421.817 660.728 421.564 660.487 421.371 660.186C421.178 659.886 421.081 659.488 421.081 658.995C421.081 658.447 421.237 657.975 421.548 657.578C421.86 657.17 422.294 656.859 422.852 656.644C423.421 656.419 424.092 656.306 424.865 656.306C425.445 656.306 426.03 656.37 426.62 656.499C427.21 656.628 427.699 656.81 428.085 657.047L427.312 658.576C426.904 658.329 426.491 658.163 426.072 658.077C425.665 657.98 425.257 657.932 424.849 657.932C424.237 657.932 423.781 658.023 423.48 658.206C423.191 658.388 423.046 658.619 423.046 658.898C423.046 659.156 423.142 659.349 423.335 659.478C423.529 659.606 423.781 659.708 424.092 659.784C424.403 659.859 424.747 659.923 425.123 659.977C425.509 660.02 425.89 660.089 426.266 660.186C426.641 660.283 426.985 660.417 427.296 660.589C427.618 660.75 427.876 660.98 428.069 661.281C428.262 661.581 428.359 661.973 428.359 662.456C428.359 662.993 428.198 663.46 427.876 663.857C427.564 664.254 427.119 664.565 426.539 664.791C425.96 665.005 425.267 665.113 424.462 665.113ZM434.133 665.113C433.178 665.113 432.34 664.925 431.621 664.549C430.913 664.163 430.36 663.637 429.963 662.971C429.577 662.306 429.383 661.549 429.383 660.701C429.383 659.843 429.571 659.086 429.947 658.431C430.333 657.766 430.859 657.245 431.525 656.869C432.201 656.494 432.968 656.306 433.827 656.306C434.664 656.306 435.41 656.488 436.065 656.853C436.72 657.218 437.235 657.734 437.61 658.399C437.986 659.064 438.174 659.848 438.174 660.75C438.174 660.835 438.169 660.932 438.158 661.039C438.158 661.147 438.153 661.249 438.142 661.345H430.977V660.009H437.079L436.29 660.428C436.301 659.934 436.199 659.499 435.984 659.123C435.77 658.748 435.475 658.453 435.099 658.238C434.734 658.023 434.31 657.916 433.827 657.916C433.333 657.916 432.899 658.023 432.523 658.238C432.158 658.453 431.868 658.753 431.653 659.14C431.45 659.515 431.348 659.961 431.348 660.476V660.798C431.348 661.313 431.466 661.769 431.702 662.166C431.938 662.564 432.271 662.869 432.7 663.084C433.129 663.299 433.623 663.406 434.181 663.406C434.664 663.406 435.099 663.331 435.485 663.181C435.872 663.03 436.215 662.794 436.516 662.472L437.594 663.712C437.208 664.163 436.72 664.512 436.129 664.758C435.55 664.995 434.884 665.113 434.133 665.113ZM443.343 665.113C442.399 665.113 441.669 664.871 441.154 664.388C440.638 663.894 440.381 663.17 440.381 662.215V654.503H442.393V662.166C442.393 662.574 442.495 662.891 442.699 663.116C442.914 663.342 443.209 663.454 443.585 663.454C444.036 663.454 444.411 663.336 444.712 663.1L445.275 664.533C445.039 664.726 444.749 664.871 444.406 664.968C444.062 665.064 443.708 665.113 443.343 665.113ZM438.964 658.077V656.467H444.696V658.077H438.964Z" fill="#A7A6AE"/>
</svg>
